<svg width="36" height="36" viewBox="0 0 36 36" fill="none" xmlns="http://www.w3.org/2000/svg">
<path d="M16 32.5V3.5H15.75L15.48 3.554C14.1729 3.81531 12.8271 3.81531 11.52 3.554L11.25 3.5H11L11 32.5H11.25L11.52 32.446C12.8271 32.1847 14.1729 32.1847 15.48 32.446L15.75 32.5H16Z" fill="#33323B"/>
<path d="M25 32.5V3.5H24.75L24.48 3.554C23.1729 3.81531 21.8271 3.81531 20.52 3.554L20.25 3.5H20L20 32.5H20.25L20.52 32.446C21.8271 32.1847 23.1729 32.1847 24.48 32.446L24.75 32.5H25Z" fill="#33323B"/>
</svg>
