<svg width="24" height="24" viewBox="0 0 24 24" fill="none" xmlns="http://www.w3.org/2000/svg">
<path fill-rule="evenodd" clip-rule="evenodd" d="M19.9283 4.1163C20.1742 4.01332 20.4434 3.97781 20.7078 4.01345C20.9722 4.04909 21.2221 4.15459 21.4316 4.31896C21.6411 4.48333 21.8025 4.70057 21.899 4.94807C21.9955 5.19556 22.0235 5.46427 21.9802 5.72621L19.7234 19.347C19.5044 20.6609 18.0556 21.4143 16.8446 20.7599C15.8316 20.2124 14.327 19.3688 12.9737 18.4886C12.297 18.048 10.2243 16.6371 10.479 15.6332C10.6979 14.7747 14.1807 11.549 16.1709 9.63116C16.952 8.8777 16.5958 8.44304 15.6734 9.13611C13.3817 10.8569 9.70483 13.4737 8.48884 14.2104C7.41614 14.8599 6.8569 14.9708 6.1882 14.8599C4.96823 14.6579 3.83682 14.345 2.91338 13.9638C1.66554 13.449 1.72624 11.7421 2.91238 11.245L19.9283 4.1163Z" fill="#C39E7B"/>
</svg>
