<svg width="24" height="24" viewBox="0 0 24 24" fill="none" xmlns="http://www.w3.org/2000/svg">
<path d="M9.6864 11.1613C9.6864 11.1613 11.9568 10.9849 11.9568 8.2105C11.9568 5.4325 10.0992 4.0813 7.7448 4.0813H0V19.5925H7.7448C7.7448 19.5925 12.474 19.7473 12.474 15.0133C12.4728 15.0121 12.6792 11.1613 9.6864 11.1613ZM3.4128 6.8365H7.7448C7.7448 6.8365 8.7984 6.8365 8.7984 8.4493C8.7984 10.0645 8.1792 10.2985 7.476 10.2985H3.4128V6.8365ZM7.5252 16.8349H3.4128V12.6889H7.7448C7.7448 12.6889 9.3144 12.6673 9.3144 14.8189C9.3144 16.6333 8.142 16.8217 7.5252 16.8349ZM18.7788 8.0257C13.0536 8.0257 13.0584 13.9861 13.0584 13.9861C13.0584 13.9861 12.6672 19.9153 18.7788 19.9153C18.7788 19.9153 23.8704 20.2201 23.8704 15.7909H21.252C21.252 15.7909 21.3384 17.4601 18.8664 17.4601C18.8664 17.4601 16.2456 17.6425 16.2456 14.7601H23.9532C23.9544 14.7589 24.804 8.0257 18.7788 8.0257ZM21.108 12.6889H16.2192C16.2192 12.6889 16.5384 10.2985 18.8376 10.2985C21.1368 10.2985 21.108 12.6889 21.108 12.6889ZM21.7164 4.9921H15.576V6.9049H21.7164V4.9921Z" fill="currentColor"/>
</svg>
